<svg xmlns="http://www.w3.org/2000/svg" viewBox="0 0 32 32" width="32" height="32">
  <defs>
    <linearGradient id="rl-grad" x1="0%" y1="0%" x2="100%" y2="100%">
      <stop offset="0%" stop-color="#10B981" />
      <stop offset="100%" stop-color="#047857" />
    </linearGradient>
    <filter id="rl-shadow" x="-10%" y="-10%" width="120%" height="120%">
      <feDropShadow dx="0" dy="1" stdDeviation="1" flood-color="#000" flood-opacity="0.15" />
    </filter>
  </defs>

  <!-- Rounded Base -->
  <rect width="32" height="32" rx="8" fill="url(#rl-grad)" />

  <!-- Document Outline -->
  <path d="M9 7C9 5.89543 9.89543 5 11 5H17.5858C18.1163 5 18.6251 5.21071 19 5.58579L22.4142 9C22.7893 9.37486 23 9.88371 23 10.4142V23C23 24.1046 22.1046 25 21 25H11C9.89543 25 9 24.1046 9 23V7Z" fill="white" fill-opacity="0.15" stroke="white" stroke-width="1.5" stroke-linejoin="round" />

  <!-- Document Fold -->
  <path d="M17 5V9C17 9.55228 17.4477 10 18 10H22" stroke="white" stroke-width="1.5" stroke-linecap="round" stroke-linejoin="round" />

  <!-- Linter / Checkmark Icon -->
  <path d="M12 17.5L15 20.5L20 14" stroke="white" stroke-width="2" stroke-linecap="round" stroke-linejoin="round" filter="url(#rl-shadow)" />
</svg>
